<svg width="1480" height="735" viewBox="0 0 1480 735" fill="none" xmlns="http://www.w3.org/2000/svg">
<g clip-path="url(#clip0_573_1100)">
<path d="M382.308 0.363L275.321 252.946H312.829L327.171 217.65H441.504L455.85 252.946H496.279L386.746 0.363H382.308ZM427.538 184.938H340.404L371.638 106.983C377.896 92.267 383.788 69.867 383.788 69.867C383.788 69.867 390.033 92.267 396.288 106.983L427.538 184.938ZM163.633 140.429C163.633 154.396 166.171 176.479 166.171 176.479C166.171 176.479 152.563 158.817 143.004 148.529L5.154 0.363H0V252.946H36.021V115.075C36.021 99.65 33.442 79.025 33.442 79.025C33.442 79.025 47.058 96.321 56.979 106.983L194.867 255.517H199.642V2.913H163.633V140.429ZM1098.4 167.642H1204.65V134.2H1098.4V37.121H1218.25V2.913H1059.43V252.946H1223.4V218.758H1098.4V167.642ZM1395.42 108.429L1379.25 101.133C1353.87 90.104 1343.22 81.642 1343.22 62.875C1343.22 45.958 1355.73 33.817 1375.57 33.817C1395.07 33.817 1406.1 41.579 1415.67 58.075L1446.17 39.35C1431.09 12.513 1408.67 0 1375.57 0C1334.04 0 1305.37 26.483 1305.37 63.6C1305.37 102.2 1327.42 120.604 1363.8 136.767L1380.34 144.146C1407.57 156.258 1422.26 165.813 1422.26 187.508C1422.26 208.121 1404.26 221.7 1378.88 221.7C1348.39 221.7 1333.28 206.271 1321.54 186.788L1289.52 204.4C1303.52 232.738 1332.2 256.25 1379.62 256.25C1426.68 256.25 1460.86 230.892 1460.86 187.146C1460.86 147.058 1438.07 127.221 1395.42 108.429ZM863.5 2.913H824.525V252.946H978.967V218.758H863.5V2.913ZM634.854 2.913H571.992V252.946H610.958V193.392H634.854C703.608 193.392 742.238 155.879 742.238 98.196C742.238 40.075 703.983 2.912 634.854 2.912M633.383 159.196H610.958V37.121H633.383C682.288 37.121 702.504 60.313 702.504 98.196C702.504 136.017 682.654 159.196 633.383 159.196Z" fill="white"/>
<path d="M69.9425 323.974H78.2005V359.799H67.9505C64.5295 344.315 55.5585 333.194 38.6255 333.194C25.3915 333.194 19.9925 336.632 19.9925 346.003C19.9925 367.336 83.4585 351.428 83.4585 391.111C83.4585 413.74 65.8175 421.107 45.8965 421.107C35.2335 421.107 24.5545 416.574 16.3045 409.865L13.1505 418.286H3.4875V379.74H14.0295C16.0335 398.799 27.6925 409.011 47.9005 409.011C60.4125 409.011 66.3755 403.186 66.3755 396.394C66.3755 372.049 2.9375 390.407 2.9375 349.69C2.9375 329.644 20.9835 321.09 38.2255 321.09C49.0255 321.09 58.1175 326.086 65.2545 331.069L69.9425 323.974Z" fill="white"/>
<path d="M218.836 371.21C218.836 399.494 198.356 421.11 167.469 421.11C136.577 421.11 116.127 399.494 116.127 371.21C116.127 342.898 136.577 321.09 167.469 321.09C198.356 321.09 218.836 342.898 218.836 371.21ZM138.448 371.21C138.448 391.556 145.002 410.031 167.911 410.031C190.365 410.031 196.515 391.556 196.515 371.21C196.515 350.881 190.365 332.21 167.469 332.21C145.002 332.21 138.448 350.881 138.448 371.21Z" fill="white"/>
<path d="M241.264 418.289V407.773C248.831 407.773 253.772 406.781 256.206 400.06L283.393 323.977H303.31L331.751 400.06C334.322 406.781 339.16 407.773 346.701 407.773V418.289H297.172V407.773H308.418C311.701 407.773 312.826 407.01 312.826 405.623C312.826 404.335 312.576 403.077 312.297 402.21L307.576 387.989H275.281L270.593 402.21C270.297 403.077 270.001 403.91 270.001 405.194C270.001 407.214 271.86 407.773 274.547 407.773H285.639V418.289H241.264ZM303.431 377.444L291.064 343.185H290.772L279.41 377.444H303.431Z" fill="white"/>
<path d="M378.697 418.289V407.773H387.76C391.018 407.773 393.906 406.627 393.906 402.919V339.335C393.906 335.631 391.018 334.485 387.76 334.485H378.697V323.977H434.443C455.764 323.977 468.01 333.76 468.01 349.852C468.01 367.339 455.235 375.61 436.143 375.61H413.781V402.919C413.781 406.627 417.381 407.773 420.639 407.773H429.756V418.289H378.697ZM413.781 365.094H426.747C440.127 365.094 447.227 360.948 447.227 349.985C447.227 339.056 441.568 334.485 426.747 334.485H413.781V365.094Z" fill="white"/>
<path d="M631.897 322.532H641.988V361.532H631.455C629.609 346.003 621.647 333.332 604.563 333.332C583.659 333.332 578.392 352.415 578.392 371.02C578.392 389.42 584.097 408.903 604.563 408.903C620.788 408.903 628.622 397.52 630.201 382.424H642.413C640.709 407.211 626.484 421.111 601.597 421.111C571.705 421.111 556.043 400.057 556.043 369.765C556.043 343.036 573.717 321.09 603.305 321.09C612.559 321.09 622.93 325.524 629.209 331.515L631.897 322.532Z" fill="white"/>
<path d="M780.521 371.21C780.521 399.494 760.029 421.11 729.137 421.11C698.254 421.11 677.787 399.494 677.787 371.21C677.787 342.898 698.254 321.09 729.137 321.09C760.029 321.09 780.521 342.898 780.521 371.21ZM700.117 371.21C700.117 391.556 706.654 410.031 729.571 410.031C752.046 410.031 758.171 391.556 758.171 371.21C758.171 350.881 752.046 332.21 729.137 332.21C706.654 332.21 700.117 350.881 700.117 371.21Z" fill="white"/>
<path d="M843.071 402.919C843.071 406.323 846.471 407.773 849.483 407.773H858.292V418.29H813.779V407.773H822.171C826.721 407.773 828.246 406.323 828.246 402.919V339.336C828.246 335.927 826.008 334.481 822.725 334.481H813.779V323.977H858.421L877.667 385.565H877.929L899.563 323.977H942.525V334.481H933.004C929.713 334.481 927.446 335.927 927.446 339.336V400.94C927.446 405.486 929.558 407.773 933.571 407.773H942.525V418.29H893.15V407.773H902.546C906.379 407.773 908.679 405.752 908.679 402.919V338.194H908.367L881.196 418.29H869.375L843.363 338.194H843.071V402.919Z" fill="white"/>
<path d="M985.322 418.289V407.773H994.431C997.693 407.773 1000.54 406.627 1000.54 402.919V339.335C1000.54 335.631 997.693 334.485 994.431 334.485H985.322V323.977H1041.1C1062.42 323.977 1074.66 333.76 1074.66 349.852C1074.66 367.339 1061.86 375.61 1042.79 375.61H1020.45V402.919C1020.45 406.627 1024 407.773 1027.29 407.773H1036.41V418.289H985.322ZM1020.45 365.094H1033.41C1046.78 365.094 1053.89 360.948 1053.89 349.985C1053.89 339.056 1048.2 334.485 1033.41 334.485H1020.45V365.094Z" fill="white"/>
<path d="M1092.09 418.289V407.773C1099.66 407.773 1104.61 406.781 1107.06 400.06L1134.21 323.977H1154.13L1182.61 400.06C1185.14 406.781 1189.99 407.773 1197.54 407.773V418.289H1148.01V407.773H1159.25C1162.53 407.773 1163.66 407.01 1163.66 405.623C1163.66 404.335 1163.39 403.077 1163.09 402.21L1158.4 387.989H1126.09L1121.39 402.21C1121.13 403.077 1120.86 403.91 1120.86 405.194C1120.86 407.214 1122.69 407.773 1125.39 407.773H1136.5V418.289H1092.09ZM1154.28 377.444L1141.89 343.185H1141.63L1130.21 377.444H1154.28Z" fill="white"/>
<path d="M1260.09 341.886H1259.81V402.065C1259.81 405.482 1261.93 407.769 1265.66 407.769H1276.3V418.29H1229.21V407.769H1239.21C1243.59 407.769 1245.01 405.482 1245.01 402.065V339.598C1245.01 335.923 1243.59 334.482 1239.21 334.482H1229.21V323.973H1271.18L1312.62 391.828H1312.88V341.194C1312.88 336.898 1310.61 334.482 1305.47 334.482H1296.8V323.973H1343.17V334.482H1334.8C1329.67 334.482 1327.68 336.632 1327.68 339.453V418.29H1306.61L1260.09 341.886Z" fill="white"/>
<path d="M1425.22 323.977V334.485H1415C1412.57 334.485 1411.58 336.031 1411.58 337.772C1411.58 338.893 1412.01 340.056 1412.83 341.193L1429.07 365.093L1446.71 341.193C1447.58 340.056 1447.99 338.893 1447.99 337.772C1447.99 336.031 1447 334.485 1444.57 334.485H1434.04V323.977H1479.17V334.485H1476.73C1471.73 334.485 1468.21 335.739 1465.77 339.147L1436.04 379.552V401.931C1436.04 404.897 1437.49 407.772 1441.74 407.772H1453.85V418.289H1398.48V407.772H1410.3C1414.71 407.772 1416.13 406.327 1416.13 402.622V378.727L1388.11 339.452C1385.67 335.927 1382.12 334.485 1377.14 334.485H1374.88V323.977H1425.22Z" fill="white"/>
<path d="M169.274 499.314C169.274 502.71 166.503 505.355 163.203 505.355C159.782 505.355 157.045 502.605 157.045 499.314C157.045 495.897 159.782 493.168 163.203 493.168C166.503 493.168 169.274 495.897 169.274 499.314Z" fill="white"/>
<path d="M204.33 499.314C204.33 502.71 201.56 505.355 198.251 505.355C194.83 505.355 192.076 502.605 192.076 499.314C192.076 495.897 194.83 493.168 198.251 493.168C201.56 493.168 204.33 495.897 204.33 499.314Z" fill="white"/>
<path d="M239.338 499.314C239.338 502.71 236.597 505.355 233.326 505.355C229.863 505.355 227.109 502.605 227.109 499.314C227.109 495.897 229.863 493.168 233.326 493.168C236.597 493.168 239.338 495.897 239.338 499.314Z" fill="white"/>
<path d="M274.413 499.314C274.413 502.71 271.659 505.355 268.342 505.355C264.922 505.355 262.197 502.605 262.197 499.314C262.197 495.897 264.922 493.168 268.342 493.168C271.659 493.168 274.413 495.897 274.413 499.314Z" fill="white"/>
<path d="M309.486 499.314C309.486 502.71 306.706 505.355 303.365 505.355C299.994 505.355 297.215 502.605 297.215 499.314C297.215 495.897 299.994 493.168 303.365 493.168C306.706 493.168 309.486 495.897 309.486 499.314Z" fill="white"/>
<path d="M344.697 499.314C344.697 502.71 341.938 505.368 338.626 505.368C335.201 505.368 332.434 502.605 332.434 499.314C332.434 495.897 335.201 493.168 338.626 493.168C341.938 493.168 344.697 495.897 344.697 499.314Z" fill="white"/>
<path d="M379.735 499.314C379.735 502.71 376.985 505.368 373.706 505.368C370.273 505.368 367.523 502.605 367.523 499.314C367.523 495.897 370.273 493.168 373.706 493.168C376.985 493.168 379.735 495.897 379.735 499.314Z" fill="white"/>
<path d="M414.812 499.314C414.812 502.71 412.033 505.368 408.746 505.368C405.321 505.368 402.6 502.605 402.6 499.314C402.6 495.897 405.321 493.168 408.746 493.168C412.033 493.168 414.812 495.897 414.812 499.314Z" fill="white"/>
<path d="M449.887 499.314C449.887 502.71 447.108 505.368 443.821 505.368C440.425 505.368 437.641 502.605 437.641 499.314C437.641 495.897 440.425 493.168 443.821 493.168C447.108 493.168 449.887 495.897 449.887 499.314Z" fill="white"/>
<path d="M484.961 499.314C484.961 502.71 482.194 505.368 478.89 505.368C475.498 505.368 472.744 502.605 472.744 499.314C472.744 495.897 475.498 493.168 478.89 493.168C482.194 493.168 484.961 495.897 484.961 499.314Z" fill="white"/>
<path d="M520.051 499.314C520.051 502.71 517.305 505.368 513.972 505.368C510.543 505.368 507.793 502.605 507.793 499.314C507.793 495.897 510.543 493.168 513.972 493.168C517.305 493.168 520.051 495.897 520.051 499.314Z" fill="white"/>
<path d="M555.083 499.314C555.083 502.71 552.37 505.368 549.037 505.368C545.616 505.368 542.891 502.605 542.891 499.314C542.891 495.897 545.616 493.168 549.037 493.168C552.37 493.168 555.083 495.897 555.083 499.314Z" fill="white"/>
<path d="M590.207 499.314C590.207 502.71 587.457 505.368 584.14 505.368C580.715 505.368 577.977 502.605 577.977 499.314C577.977 495.897 580.715 493.168 584.14 493.168C587.457 493.168 590.207 495.897 590.207 499.314Z" fill="white"/>
<path d="M625.283 499.314C625.283 502.71 622.533 505.368 619.204 505.368C615.795 505.368 613.012 502.605 613.012 499.314C613.012 495.897 615.795 493.168 619.204 493.168C622.533 493.168 625.283 495.897 625.283 499.314Z" fill="white"/>
<path d="M1009.86 499.314C1009.86 502.71 1007.13 505.355 1003.81 505.355C1000.4 505.355 997.631 502.605 997.631 499.314C997.631 495.897 1000.4 493.168 1003.81 493.168C1007.13 493.168 1009.86 495.897 1009.86 499.314Z" fill="white"/>
<path d="M1044.94 499.314C1044.94 502.71 1042.18 505.355 1038.84 505.355C1035.47 505.355 1032.69 502.605 1032.69 499.314C1032.69 495.897 1035.47 493.168 1038.84 493.168C1042.18 493.168 1044.94 495.897 1044.94 499.314Z" fill="white"/>
<path d="M1079.98 499.314C1079.98 502.71 1077.23 505.355 1073.91 505.355C1070.49 505.355 1067.73 502.605 1067.73 499.314C1067.73 495.897 1070.49 493.168 1073.91 493.168C1077.23 493.168 1079.98 495.897 1079.98 499.314Z" fill="white"/>
<path d="M1115.01 499.314C1115.01 502.71 1112.26 505.355 1108.94 505.355C1105.54 505.355 1102.8 502.605 1102.8 499.314C1102.8 495.897 1105.54 493.168 1108.94 493.168C1112.26 493.168 1115.01 495.897 1115.01 499.314Z" fill="white"/>
<path d="M1150.02 499.314C1150.02 502.71 1147.3 505.355 1144.01 505.355C1140.62 505.355 1137.83 502.605 1137.83 499.314C1137.83 495.897 1140.62 493.168 1144.01 493.168C1147.3 493.168 1150.02 495.897 1150.02 499.314Z" fill="white"/>
<path d="M1185.08 499.314C1185.08 502.71 1182.33 505.355 1179.01 505.355C1175.59 505.355 1172.83 502.605 1172.83 499.314C1172.83 495.897 1175.59 493.168 1179.01 493.168C1182.33 493.168 1185.08 495.897 1185.08 499.314Z" fill="white"/>
<path d="M1220.14 499.314C1220.14 502.71 1217.37 505.355 1214.08 505.355C1210.68 505.355 1207.96 502.605 1207.96 499.314C1207.96 495.897 1210.68 493.168 1214.08 493.168C1217.37 493.168 1220.14 495.897 1220.14 499.314Z" fill="white"/>
<path d="M1255.19 499.314C1255.19 502.71 1252.43 505.355 1249.14 505.355C1245.72 505.355 1242.96 502.605 1242.96 499.314C1242.96 495.897 1245.72 493.168 1249.14 493.168C1252.43 493.168 1255.19 495.897 1255.19 499.314Z" fill="white"/>
<path d="M1290.24 499.314C1290.24 502.71 1287.49 505.355 1284.17 505.355C1280.74 505.355 1277.99 502.605 1277.99 499.314C1277.99 495.897 1280.74 493.168 1284.17 493.168C1287.49 493.168 1290.24 495.897 1290.24 499.314Z" fill="white"/>
<path d="M1325.29 499.314C1325.29 502.71 1322.53 505.355 1319.24 505.355C1315.79 505.355 1313.07 502.605 1313.07 499.314C1313.07 495.897 1315.79 493.168 1319.24 493.168C1322.53 493.168 1325.29 495.897 1325.29 499.314Z" fill="white"/>
<path d="M660.327 499.314C660.327 502.71 657.602 505.368 654.286 505.368C650.89 505.368 648.082 502.605 648.082 499.314C648.082 495.897 650.89 493.168 654.286 493.168C657.602 493.168 660.327 495.897 660.327 499.314Z" fill="white"/>
<path d="M695.406 499.314C695.406 502.71 692.647 505.368 689.356 505.368C685.91 505.368 683.156 502.605 683.156 499.314C683.156 495.897 685.91 493.168 689.356 493.168C692.647 493.168 695.406 495.897 695.406 499.314Z" fill="white"/>
<path d="M730.475 499.314C730.475 502.71 727.708 505.368 724.445 505.368C721.012 505.368 718.262 502.605 718.262 499.314C718.262 495.897 721.012 493.168 724.445 493.168C727.708 493.168 730.475 495.897 730.475 499.314Z" fill="white"/>
<path d="M765.542 499.314C765.542 502.71 762.792 505.368 759.476 505.368C756.088 505.368 753.334 502.605 753.334 499.314C753.334 495.897 756.088 493.168 759.476 493.168C762.792 493.168 765.542 495.897 765.542 499.314Z" fill="white"/>
<path d="M800.632 499.314C800.632 502.71 797.874 505.368 794.582 505.368C791.149 505.368 788.424 502.605 788.424 499.314C788.424 495.897 791.149 493.168 794.582 493.168C797.874 493.168 800.632 495.897 800.632 499.314Z" fill="white"/>
<path d="M835.713 499.314C835.713 502.71 832.997 505.368 829.626 505.368C826.205 505.368 823.459 502.605 823.459 499.314C823.459 495.897 826.205 493.168 829.626 493.168C832.997 493.168 835.713 495.897 835.713 499.314Z" fill="white"/>
<path d="M870.77 499.314C870.77 502.71 868.02 505.368 864.687 505.368C861.325 505.368 858.525 502.605 858.525 499.314C858.525 495.897 861.325 493.168 864.687 493.168C868.02 493.168 870.77 495.897 870.77 499.314Z" fill="white"/>
<path d="M904.558 499.314C904.558 502.71 901.778 505.368 898.462 505.368C895.058 505.368 892.32 502.605 892.32 499.314C892.32 495.897 895.058 493.168 898.462 493.168C901.778 493.168 904.558 495.897 904.558 499.314Z" fill="white"/>
<path d="M939.591 499.314C939.591 502.71 936.862 505.368 933.579 505.368C930.145 505.368 927.391 502.605 927.391 499.314C927.391 495.897 930.145 493.168 933.579 493.168C936.862 493.168 939.591 495.897 939.591 499.314Z" fill="white"/>
<path d="M974.709 499.314C974.709 502.71 971.959 505.368 968.613 505.368C965.204 505.368 962.463 502.605 962.463 499.314C962.463 495.897 965.204 493.168 968.613 493.168C971.959 493.168 974.709 495.897 974.709 499.314Z" fill="white"/>
<path d="M223.167 598.879C220.709 596.246 217.338 591.959 217.338 591.959C217.338 591.959 217.963 597.05 217.963 600.888V635.042H209.051V572.484H210.321L244.471 609.171C246.838 611.729 250.205 616.084 250.205 616.084C250.205 616.084 249.563 610.629 249.563 607.171V573.109H258.492V635.663H257.301L223.167 598.879Z" fill="white"/>
<path d="M310.597 572.484H311.693L338.826 635.043H328.813L325.259 626.297H296.934L293.393 635.043H284.088L310.597 572.484ZM321.797 618.184L314.059 598.88C312.505 595.23 310.955 589.688 310.955 589.688C310.955 589.688 309.501 595.23 307.959 598.88L300.209 618.184H321.797Z" fill="white"/>
<path d="M370.532 581.575H352.141V573.109H398.495V581.575H380.091V635.042H370.532V581.575Z" fill="white"/>
<path d="M423.98 613.28V573.109H433.63V612.722C433.63 622.743 438.551 627.209 447.568 627.209C456.58 627.209 461.593 622.743 461.593 612.722V573.109H471.151V613.28C471.151 628.305 460.951 635.855 447.568 635.855C434.101 635.855 423.98 628.305 423.98 613.28Z" fill="white"/>
<path d="M544.122 635.043H533.018L521.905 618.734C520.18 618.922 518.443 619.101 516.717 619.101H510.892V635.043H501.238V573.109H516.717C533.834 573.109 543.397 582.026 543.397 596.247C543.397 605.792 539.118 612.355 531.009 615.909L544.122 635.042V635.043ZM516.347 610.818C528.638 610.818 533.563 605.452 533.563 596.248C533.563 586.948 528.472 581.577 516.347 581.577H510.893V610.818H516.347Z" fill="white"/>
<path d="M593.029 572.484H594.125L621.258 635.043H611.245L607.691 626.297H579.37L575.812 635.043H566.537L593.029 572.484ZM604.229 618.184L596.491 598.88C594.941 595.23 593.387 589.688 593.387 589.688C593.387 589.688 591.933 595.23 590.379 598.88L582.641 618.184H604.229Z" fill="white"/>
<path d="M646.855 573.109H656.505V626.567H685.102V635.042H646.855V573.109Z" fill="white"/>
<path d="M711.895 573.109H721.544V626.567H750.137V635.042H711.895V573.109Z" fill="white"/>
<path d="M786.482 615.455L762.994 573.109H773.652L787.665 598.601C789.577 602.08 791.402 607.526 791.402 607.526C791.402 607.526 793.315 602.08 795.127 598.601L808.694 573.109H818.627L796.131 614.909V635.042H786.481L786.482 615.455Z" fill="white"/>
<path d="M877.85 573.109H900.338C911.913 573.109 917.825 580.13 917.825 588.688C917.825 594.605 914.825 598.792 909.45 600.613C917.742 602.53 922.096 608.442 922.096 616.363C922.096 627.017 915 635.042 901.984 635.042H877.85V573.109ZM899.884 597.243C905.617 597.243 908.359 594.055 908.359 589.409C908.359 584.772 905.717 581.576 899.713 581.576H887.5V597.242L899.884 597.243ZM901.434 626.568C908.905 626.568 912.446 622.193 912.446 616.01C912.446 609.802 908.621 605.452 900.975 605.452H887.5V626.568H901.434Z" fill="white"/>
<path d="M948.803 573.109H988.141V581.576H958.453V605.617H984.774V613.909H958.453V626.567H989.411V635.042H948.803V573.109Z" fill="white"/>
<path d="M1031.6 581.575H1013.21V573.109H1059.56V581.575H1041.16V635.042H1031.6V581.575Z" fill="white"/>
<path d="M1099.7 581.575H1081.3V573.109H1127.66V581.575H1109.26V635.042H1099.7V581.575Z" fill="white"/>
<path d="M1153.53 573.109H1192.87V581.576H1163.18V605.617H1189.5V613.909H1163.18V626.567H1194.13V635.042H1153.53V573.109Z" fill="white"/>
<path d="M1265.36 635.043H1254.25L1243.15 618.734C1241.42 618.922 1239.68 619.101 1237.96 619.101H1232.13V635.043H1222.48V573.109H1237.96C1255.08 573.109 1264.64 582.026 1264.64 596.247C1264.64 605.792 1260.35 612.355 1252.25 615.909L1265.36 635.042L1265.36 635.043ZM1237.6 610.818C1249.88 610.818 1254.8 605.452 1254.8 596.248C1254.8 586.948 1249.71 581.577 1237.6 581.577H1232.13V610.818H1237.6Z" fill="white"/>
<path d="M453.176 721.562L461.105 717.187C464.014 722.024 467.743 725.849 475.31 725.849C481.593 725.849 486.043 722.482 486.043 717.378C486.043 711.999 482.405 709.637 475.672 706.628L471.568 704.812C462.56 700.799 457.093 696.253 457.093 686.687C457.093 677.491 464.185 670.941 474.48 670.941C482.672 670.941 488.239 674.032 491.964 680.67L484.414 685.324C482.043 681.232 479.305 679.312 474.48 679.312C469.564 679.312 466.472 682.312 466.472 686.499C466.472 691.153 469.11 693.237 475.389 695.978L479.397 697.799C489.96 702.432 495.614 707.353 495.614 717.282C495.614 728.124 487.139 734.403 475.485 734.403C463.735 734.403 456.639 728.582 453.176 721.562Z" fill="white"/>
<path d="M536.423 697.888L556.443 671.668H567.381L545.427 700.613L569.835 733.58H558.181L539.056 707.73L532.406 715.83V733.58H522.76V671.668H532.406V697.168C532.406 699.976 532.035 703.713 531.677 706.272C533.039 703.451 534.869 699.976 536.423 697.888Z" fill="white"/>
<path d="M605.277 671.664H595.715V733.577H605.277V671.664Z" fill="white"/>
<path d="M650.09 697.431C647.636 694.789 644.265 690.514 644.265 690.514C644.265 690.514 644.894 695.614 644.894 699.435V733.581H635.977V671.023H637.248L671.394 707.731C673.769 710.268 677.131 714.652 677.131 714.652C677.131 714.652 676.49 709.185 676.49 705.723V671.668H685.419V734.218H684.227L650.09 697.431Z" fill="white"/>
<path d="M746.721 702.625C746.721 684.15 760.925 670.941 778.5 670.941C789.608 670.941 797.8 675.033 803.267 683.229L795.896 688.504C792.433 683.133 786.604 679.579 778.5 679.579C765.65 679.579 756.558 689.416 756.558 702.625C756.558 715.829 765.65 725.746 778.5 725.746C787.054 725.746 792.804 721.925 796.796 716.012L804.179 721.2C798.8 729.396 790.067 734.408 778.5 734.408C760.925 734.408 746.721 721.104 746.721 702.625Z" fill="white"/>
<path d="M849.999 671.023H851.095L878.228 733.581H868.203L864.657 724.835H836.341L832.791 733.581H823.512L849.999 671.023ZM861.195 716.739L853.462 697.431C851.912 693.798 850.366 688.239 850.366 688.239C850.366 688.239 848.903 693.798 847.357 697.431L839.612 716.739H861.195Z" fill="white"/>
<path d="M946.717 733.577H935.613L924.504 717.281C922.784 717.46 921.046 717.644 919.321 717.644H913.488V733.577H903.842V671.664H919.321C936.434 671.664 945.996 680.594 945.996 694.785C945.996 704.356 941.725 710.906 933.604 714.46L946.717 733.577ZM918.946 709.356C931.246 709.356 936.159 703.981 936.159 694.785C936.159 685.506 931.067 680.139 918.946 680.139H913.488V709.356H918.946Z" fill="white"/>
<path d="M974.42 671.664H1013.75V680.139H984.07V704.168H1010.39V712.455H984.07V725.114H1015.03V733.576H974.42V671.664Z" fill="white"/>
</g>
<defs>
<clipPath id="clip0_573_1100">
<rect width="1480" height="735" fill="white"/>
</clipPath>
</defs>
</svg>
