<svg width="587" height="63" viewBox="0 0 587 63" fill="none" xmlns="http://www.w3.org/2000/svg">
<path d="M73.7324 4.13271C71.7324 7.33271 71.7324 7.99938 73.4657 11.1994C77.3324 18.1327 86.6657 15.866 86.6657 7.99938C86.6657 0.399378 77.8657 -2.13396 73.7324 4.13271Z" fill="white"/>
<path d="M0 29.3346V56.668H6H11.8667L12.2667 45.6013L12.6667 34.668L27.0667 34.268L41.3333 33.868V45.3346V56.668H47.3333H53.3333V29.3346V2.0013H47.3333H41.3333V12.668V23.3346H26.6667H12V12.668V2.0013H6H0V29.3346Z" fill="white"/>
<path d="M106.666 29.3346V56.668H121.733C129.866 56.668 138.799 56.0013 141.466 55.3346C147.866 53.6013 151.999 48.8013 152.933 42.4013C153.466 37.868 153.066 36.4013 149.333 32.268C146.933 29.468 144.266 27.3346 143.199 27.3346C140.399 27.3346 140.933 26.0013 144.666 23.068C147.066 21.2013 147.999 19.2013 147.999 15.868C147.999 4.93463 142.399 2.0013 121.333 2.0013H106.666V29.3346ZM135.199 12.1346C137.866 14.668 137.999 19.868 135.466 21.868C134.266 22.8013 130.399 23.3346 125.733 23.068C117.999 22.668 117.999 22.668 117.599 18.268C116.933 10.9346 117.866 10.0013 125.866 10.0013C130.666 10.0013 133.866 10.668 135.199 12.1346ZM138.399 33.468C141.866 35.868 142.399 42.1346 139.199 45.3346C137.466 46.9346 134.933 47.3346 127.466 47.068L117.999 46.668L117.599 38.9346L117.199 31.3346H126.266C132.399 31.3346 136.399 32.0013 138.399 33.468Z" fill="white"/>
<path d="M182.266 12.9346C177.466 21.868 162.133 51.6013 160.266 55.6013C160 56.268 162.4 56.668 165.6 56.668C170.666 56.668 171.733 56.1346 173.733 52.668C176.133 48.668 176.133 48.668 188.666 48.668H201.2L203.333 52.668C205.2 56.268 206.133 56.668 211.333 56.668H217.333L203.866 30.268C196.4 15.868 189.866 3.46797 189.333 2.93464C188.8 2.26797 185.6 6.80131 182.266 12.9346ZM196 39.7346C195.466 40.4013 191.866 40.668 187.866 40.4013C179.466 40.0013 179.466 39.7346 184.933 27.7346L188.533 20.0013L192.8 29.3346C195.066 34.5346 196.533 39.2013 196 39.7346Z" fill="white"/>
<path d="M228 29.3346V56.668H234H240V48.0013C240 43.2013 240.533 39.3346 241.2 39.3346C242 39.3346 246 43.2013 250.267 48.0013L258 56.668H266H273.867L264.933 47.6013C260 42.668 256 38.268 256 37.7346C256 37.3346 258 36.5346 260.4 36.1346C262.933 35.7346 266.4 33.7346 268.133 31.868C270.8 29.068 271.333 27.068 271.333 20.0013C271.333 5.73463 265.467 2.0013 242.8 2.0013H228V29.3346ZM258 12.8013C261.733 16.668 261.867 21.6013 258.133 25.2013C255.333 28.1346 253.6 28.668 247.333 28.668H240V19.2013V9.73463L248 10.268C252.533 10.5346 256.933 11.7346 258 12.8013Z" fill="white"/>
<path d="M74.2673 24.268C73.734 24.668 73.334 32.268 73.334 40.9346V56.668H79.334H85.334V40.0013V23.3346H80.2673C77.4673 23.3346 74.6673 23.7346 74.2673 24.268Z" fill="white"/>
<path d="M301.334 46.6674V56.8008L306.134 56.4008C312.001 55.8674 314.801 52.6674 312.534 48.9341C311.467 47.3341 311.467 46.0008 312.534 44.2674C314.801 40.8008 312.001 37.4674 306.134 36.9341L301.334 36.5341V46.6674ZM311.334 40.6674C312.667 42.9341 309.201 46.1341 306.134 45.7341C304.401 45.4674 303.201 44.1341 302.934 42.2674C302.534 39.7341 303.067 39.3341 306.534 39.3341C308.667 39.3341 310.934 40.0008 311.334 40.6674ZM310.667 49.3341C312.934 52.0008 311.201 54.0008 306.534 54.0008C303.334 54.0008 302.667 53.4674 302.667 50.6674C302.667 48.0008 303.334 47.3341 305.867 47.3341C307.601 47.3341 309.734 48.2674 310.667 49.3341Z" fill="white"/>
<path d="M504 38.668C504 39.7346 504.667 40.668 505.333 40.668C506.133 40.668 506.667 39.7346 506.667 38.668C506.667 37.6013 506.133 36.668 505.333 36.668C504.667 36.668 504 37.6013 504 38.668Z" fill="white"/>
<path d="M540.799 37.8686C540.266 38.5353 540.533 39.4686 541.199 39.8686C541.866 40.402 542.799 40.1353 543.199 39.4686C543.733 38.802 543.466 37.8686 542.799 37.4686C542.133 36.9353 541.199 37.202 540.799 37.8686Z" fill="white"/>
<path d="M372.133 40.9328C372.133 42.2662 371.333 43.3328 370.4 43.3328C369.2 43.3328 369.2 43.7328 370.4 44.9328C371.333 45.8662 372 48.3995 372 50.7995C372 53.4662 372.8 55.3329 374.133 55.8662C377.333 57.0662 378.4 55.4662 375.6 53.8662C372.667 52.1329 372.667 46.5328 375.733 44.7995C377.733 43.5995 377.733 43.4662 375.733 43.3328C374.533 43.3328 373.2 42.2662 372.933 40.9328C372.4 38.7995 372.267 38.7995 372.133 40.9328Z" fill="white"/>
<path d="M320.266 44.9364C317.999 47.2031 318.266 53.3364 320.666 55.3364C322.799 57.2031 329.333 56.1364 329.333 53.8698C329.333 53.0698 328.399 53.0698 326.533 54.0031C324.533 55.2031 323.333 55.0698 321.866 53.8698C318.799 51.3364 319.733 50.0031 324.666 50.0031C327.599 50.0031 329.333 49.3364 329.333 48.2698C329.333 45.8698 326.533 43.3364 323.999 43.3364C322.799 43.3364 321.199 44.0031 320.266 44.9364ZM325.866 45.4698C329.333 46.8031 328.266 48.6698 323.999 48.6698C319.999 48.6698 318.533 46.8031 321.733 45.6031C322.533 45.2031 323.466 44.8031 323.599 44.8031C323.733 44.6698 324.666 45.0698 325.866 45.4698Z" fill="white"/>
<path d="M337.066 44.8031C333.866 46.6698 333.866 53.4698 337.066 55.2031C338.533 56.0031 341.333 56.4031 343.466 56.1365C347.066 55.7365 347.333 55.3365 347.333 50.0031C347.333 44.6698 347.066 44.2698 343.333 43.8698C341.199 43.6031 338.266 44.1365 337.066 44.8031ZM344.533 47.7365C345.999 50.1365 344.533 54.0031 341.733 54.9365C340.133 55.4698 335.999 51.8698 335.999 50.0031C335.999 48.1365 340.133 44.5365 341.733 45.0698C342.533 45.3365 343.733 46.5365 344.533 47.7365Z" fill="white"/>
<path d="M353.334 48.4029C353.334 54.5362 355.067 56.2695 361.067 56.2695C365.334 56.2695 365.334 56.1362 365.334 49.7362C365.334 46.2695 364.801 43.3362 364.001 43.3362C363.334 43.3362 362.667 45.3362 362.667 47.8695C362.667 52.5362 359.867 56.2695 357.334 54.6695C356.667 54.2695 356.001 51.8695 356.001 49.3362C356.001 46.8029 355.467 44.4029 354.667 44.0029C353.867 43.4695 353.334 45.2029 353.334 48.4029Z" fill="white"/>
<path d="M383.2 49.3346L383.333 56.0013L387.733 55.7346C391.6 55.6013 392.133 56.0013 391.733 58.4013C391.2 62.1346 386.666 62.9346 384.266 59.868C382.533 57.468 382.4 57.468 382.933 60.0013C383.2 62.0013 384.4 62.668 388 62.668H392.666L392.8 52.668C392.933 47.2013 392.666 44.9346 392.4 47.6013C391.333 57.3346 384.666 57.3346 383.6 47.6013C383.2 44.268 383.066 44.8013 383.2 49.3346Z" fill="white"/>
<path d="M409.6 44.9357C406.667 47.869 407.733 53.869 411.467 55.6023C415.467 57.469 418.533 56.0023 420.133 51.7357C422.267 45.869 414 40.5356 409.6 44.9357ZM417.067 46.269C421.067 50.269 417.067 56.669 412.133 54.0023C408.667 52.269 408.533 48.0023 411.733 46.1357C414.667 44.4023 415.2 44.4023 417.067 46.269Z" fill="white"/>
<path d="M426.933 50.6669C427.066 56.2669 427.199 56.5336 427.599 52.4002C428.666 42.6669 435.733 42.6669 436.133 52.5336C436.399 56.8002 436.399 56.9336 436.933 53.4669C437.333 51.4669 437.199 48.2669 436.799 46.5336C436.133 43.8669 435.199 43.3336 431.333 43.7336L426.666 44.0002L426.933 50.6669Z" fill="white"/>
<path d="M452.533 46.6666C450.533 49.7333 450.533 50.2666 452.533 53.3333C454.267 55.9999 455.733 56.5333 459.333 56.2666C463.867 56 464 55.8666 464 50C464 44.1333 463.867 44 459.333 43.7333C455.733 43.4666 454.267 44 452.533 46.6666ZM460.533 46.8C461.733 47.8666 462.667 49.3333 462.667 50C462.667 51.3333 458.8 55.3333 457.467 55.3333C455.733 55.3333 453.333 52.1333 453.333 50C453.333 47.8666 455.733 44.6666 457.467 44.6666C458 44.6666 459.467 45.6 460.533 46.8Z" fill="white"/>
<path d="M479.2 44.5359C478.134 45.7359 478.667 55.2026 480 56.0026C480.8 56.5359 481.334 54.6693 481.334 51.6026C481.334 42.4026 487.2 43.3359 488.4 52.6693L488.934 57.3359L489.067 52.5359C489.334 47.4693 492.534 43.3359 494.667 45.4693C495.334 46.1359 496.134 49.0693 496.4 52.0026C496.8 56.4026 496.934 56.1359 496.8 50.6693C496.667 44.8026 496.267 44.0026 493.734 43.6026C492 43.3359 490.667 43.8693 490.667 44.8026C490.667 45.8693 490.267 46.0026 488.8 44.8026C487.2 43.4693 480.534 43.2026 479.2 44.5359Z" fill="white"/>
<path d="M504 50.0012C504 54.2679 504.533 56.5346 505.333 56.0012C506.133 55.6012 506.667 52.8012 506.667 50.0012C506.667 47.2012 506.133 44.4012 505.333 44.0012C504.533 43.4679 504 45.7346 504 50.0012Z" fill="white"/>
<path d="M512.933 44.2674C510.933 46.1341 512.267 48.6674 516.133 50.8008C519.2 52.4008 519.867 53.3341 518.8 54.4008C517.6 55.6008 516.667 55.4674 514.667 54.2674C513.2 53.3341 512 53.2008 512 53.8674C512 56.0008 514.667 56.9341 518.133 56.1341C522.533 54.9341 522.133 51.8674 517.2 49.2008C514.133 47.7341 513.467 46.6674 514.533 45.6008C515.6 44.5341 516.4 44.5341 517.6 45.7341C519.867 48.0008 522 47.7341 520 45.3341C518.267 43.2008 514.4 42.6674 512.933 44.2674Z" fill="white"/>
<path d="M527.599 44.135C525.466 46.2683 526.799 49.735 529.999 50.535C531.866 51.0683 533.332 52.0017 533.332 52.6683C533.332 54.6683 530.532 55.735 528.932 54.135C526.666 51.8683 524.799 52.4017 526.666 54.6683C528.666 57.0683 532.266 57.2017 534.399 55.0683C536.932 52.535 536.266 51.335 531.999 49.8683C529.866 49.0683 527.999 47.8683 527.999 47.335C527.999 45.0683 530.799 44.535 532.932 46.2683C534.799 47.735 535.066 47.735 534.399 46.0017C533.732 43.8683 529.199 42.6683 527.599 44.135Z" fill="white"/>
<path d="M541.732 50.0027C541.732 54.0027 541.999 55.7361 542.266 53.7361C542.532 51.6027 542.532 48.4027 542.266 46.4027C541.999 44.2694 541.732 46.0027 541.732 50.0027Z" fill="white"/>
<path d="M550.267 45.7358C547.334 48.9358 547.467 51.7358 550.401 54.4025C553.467 57.2025 556.534 57.3358 559.201 54.5358C563.201 50.5358 560.401 43.3358 554.801 43.3358C553.467 43.3358 551.467 44.4025 550.267 45.7358ZM557.867 46.8025C559.067 47.8691 560.001 49.3358 560.001 50.0025C560.001 51.3358 556.134 55.3358 554.801 55.3358C553.067 55.3358 550.667 52.1358 550.667 50.0025C550.667 47.8691 553.067 44.6691 554.801 44.6691C555.334 44.6691 556.801 45.6025 557.867 46.8025Z" fill="white"/>
<path d="M566.666 50.5365C566.666 57.6031 568.133 58.0031 568.933 51.0698C569.866 42.8031 575.999 43.2031 575.999 51.6031C575.999 54.6698 576.533 56.5365 577.333 56.0031C579.066 54.9365 579.066 49.2031 577.333 45.8698C576.266 44.0031 574.666 43.4698 571.333 43.7365C566.666 44.0031 566.666 44.0031 566.666 50.5365Z" fill="white"/>
<path d="M584 54.668C584 55.7346 584.667 56.668 585.333 56.668C586.133 56.668 586.667 55.7346 586.667 54.668C586.667 53.6013 586.133 52.668 585.333 52.668C584.667 52.668 584 53.6013 584 54.668Z" fill="white"/>
</svg>
