<svg width="1748" height="596" viewBox="0 0 1748 596" fill="none" xmlns="http://www.w3.org/2000/svg">
<path fill-rule="evenodd" clip-rule="evenodd" d="M440.199 530.271C444.013 531.047 448.215 533.762 450.025 536.413C454.292 542.943 447.181 551.541 437.548 551.541C435.415 551.541 432.764 551.088 431.6 550.571C425.717 547.727 424.618 536.607 429.79 531.952C432.247 529.754 435.35 529.237 440.199 530.271ZM370.248 530.918C379.751 535.508 377.683 551.541 367.598 551.541C359.904 551.541 353.245 542.361 356.478 536.154C357.771 533.633 360.292 531.5 363.137 530.53C366.434 529.302 367.016 529.366 370.248 530.918ZM492.176 498.917C497.025 501.373 498.253 504.218 496.249 508.097C494.504 511.458 489.138 515.337 486.358 515.337C485.711 515.337 484.031 514.755 482.544 514.109C475.626 510.941 475.109 500.533 481.833 498.593C485.13 497.623 489.914 497.817 492.176 498.917ZM322.925 477.582C325.964 479.004 326.61 481.073 325.899 486.698C324.865 494.973 321.438 498.787 315.038 498.852C304.306 498.917 302.625 485.534 312.516 478.358C315.426 476.225 319.499 475.901 322.925 477.582ZM441.104 477.324C443.043 478.358 444.789 481.849 444.789 484.823C444.789 488.443 443.302 491.805 440.393 494.844C435.738 499.692 430.049 501.115 425.394 498.593C420.416 495.943 418.476 487.15 421.838 482.237C425.135 477.388 435.932 474.608 441.104 477.324ZM383.889 463.23C385.311 464.782 386.669 466.98 386.928 468.144C387.51 470.794 386.798 476.418 385.247 481.396C384.212 484.758 383.695 485.534 381.238 487.086L378.394 488.831L374.256 487.538C368.632 485.793 366.046 484.047 364.882 481.267C362.555 475.707 367.792 465.428 374.838 461.743C378.782 459.61 380.85 459.933 383.889 463.23ZM483.901 434.591C487.069 437.5 489.138 441.96 488.491 444.546C487.457 448.555 480.346 453.921 476.014 453.921C471.683 453.921 467.416 448.943 467.416 443.835C467.416 438.663 474.139 432.134 479.57 432.005C480.41 431.94 482.221 433.039 483.901 434.591ZM422.937 410.541C424.553 411.575 426.687 413.515 427.721 414.872C429.273 416.877 429.596 417.911 429.596 421.014C429.531 431.94 418.024 437.112 410.007 429.742C406.193 426.38 405.611 421.337 408.327 415.907C411.947 408.666 416.989 406.791 422.937 410.541ZM344.259 409.571C345.423 410.088 346.91 411.252 347.492 412.157C349.948 415.907 349.237 427.803 346.199 432.974C343.548 437.564 337.988 438.987 332.622 436.53C326.028 433.556 323.248 428.837 324.541 422.695C325.64 417.394 330.23 410.8 333.915 409.248C335.984 408.407 341.867 408.601 344.259 409.571ZM391.13 369.683C392.358 371.234 392.552 372.075 392.294 376.083C391.776 384.358 387.251 389.466 380.463 389.53C376.39 389.595 374.127 388.237 371.929 384.358C368.567 378.475 371.024 373.238 378.846 369.618C381.303 368.454 383.501 367.937 386.087 367.937C389.32 367.937 389.902 368.131 391.13 369.683ZM375.42 338.78C370.895 340.267 367.404 342.53 362.943 346.732C357.189 352.163 349.108 354.878 334.562 356.301C320.08 357.658 317.042 359.662 313.034 370.264C308.379 382.483 303.724 389.336 293.251 399.357C284.782 407.502 282.907 410.864 282.907 418.364C282.907 421.402 283.36 424.505 284.136 426.768C286.657 434.009 285.041 442.348 278.382 456.959C272.434 470.083 272.692 474.027 281.291 496.46C301.785 549.989 306.181 557.747 318.076 561.561C325.834 564.083 331.588 567.897 339.992 576.108C347.556 583.478 351.306 586.322 357.836 589.619C368.373 594.856 378.976 596.407 394.039 594.92C398.306 594.468 407.486 593.886 414.403 593.563C435.867 592.722 444.724 589.36 460.304 576.172C466.64 570.806 473.364 567.186 482.35 564.406C488.815 562.402 494.762 559.04 497.93 555.678C501.163 552.123 521.527 517.923 528.768 503.83C532.323 497.042 532.97 493.357 532.453 484.306C532 476.936 529.414 445.904 528.186 433.556C527.087 422.049 523.531 411.123 518.036 402.331C513.382 394.767 509.826 393.538 502.132 396.771C498.577 398.258 497.542 398.452 492.629 398.193C487.845 397.935 486.487 397.547 481.703 395.219C475.239 392.052 472.976 391.858 465.282 393.926C458.106 395.801 451.189 395.801 447.568 393.926C444.336 392.245 441.233 388.496 438.065 382.483C436.384 379.122 434.445 376.729 430.695 373.368C422.808 366.127 420.093 359.727 420.416 349.06C420.545 344.405 420.416 343.952 418.8 342.336L417.054 340.591L411.494 341.366C404.965 342.336 401.28 342.013 394.427 339.75C387.703 337.487 380.398 337.1 375.42 338.78Z" fill="white"/>
<path d="M450.555 202.05C464.415 202.05 476.143 190.677 476.143 176.106C476.143 161.891 460.861 151.229 447.001 151.229H418.214V202.05H450.555ZM445.934 105.028C459.439 105.028 470.812 93.6552 470.812 79.4395C470.812 65.2238 459.439 55.2727 445.934 55.2727H418.214V105.028H445.934ZM362.772 10.8486C362.772 7.29473 365.616 4.09625 369.525 4.09625H452.331C494.268 4.09625 528.741 32.8829 528.741 70.1991C528.741 97.5644 504.219 117.466 487.516 126.351C506.351 134.17 535.138 151.584 535.138 184.281C535.138 224.084 499.954 252.871 457.663 252.871H369.525C365.616 252.871 362.772 249.673 362.772 246.119V10.8486Z" fill="white"/>
<path d="M729.893 167.577L702.883 108.937H702.527L675.873 167.577H729.893ZM583.826 243.631L695.064 4.45128C696.13 2.31918 698.618 0.542108 701.106 0.542108H704.66C707.148 0.542108 709.635 2.31918 710.702 4.45128L821.939 243.631C824.072 248.251 821.228 252.871 815.898 252.871H776.449C770.052 252.871 767.209 250.739 764.011 243.986L751.216 215.91H654.549L641.755 244.342C639.978 248.606 636.069 252.871 628.961 252.871H589.868C584.537 252.871 581.694 248.251 583.826 243.631Z" fill="white"/>
<path d="M886.26 6.93989C886.26 3.38606 889.458 0.542587 893.012 0.542587H901.897L1043.7 137.014H1044.05V10.8491C1044.05 7.29525 1046.9 4.09675 1050.81 4.09675H1093.45C1097.01 4.09675 1100.21 7.29525 1100.21 10.8491V250.028C1100.21 253.582 1097.01 256.426 1093.45 256.426H1087.77C1086.7 256.426 1083.86 255.359 1083.15 254.649L942.767 113.558H942.412V246.119C942.412 249.673 939.569 252.872 935.659 252.872H893.368C889.814 252.872 886.615 249.673 886.615 246.119L886.26 6.93989Z" fill="white"/>
<path d="M1306.69 0.898495C1336.54 0.898495 1369.24 13.3371 1393.4 34.3054C1396.6 36.7932 1396.96 41.0577 1394.11 43.9009L1366.04 73.754C1363.19 76.2417 1359.28 76.2418 1356.44 74.1093C1342.94 61.6707 1327.3 57.0505 1309.88 57.0505C1271.15 57.0505 1239.87 89.7467 1239.87 128.84C1239.87 167.578 1271.5 199.563 1310.24 199.563C1320.55 199.563 1331.21 198.142 1341.87 193.877V173.264H1319.48C1315.57 173.264 1312.73 170.421 1312.73 166.867V131.683C1312.73 127.774 1315.57 124.93 1319.48 124.93H1390.91C1394.47 124.93 1397.31 128.129 1397.31 131.683L1397.67 227.284C1397.67 229.061 1396.24 231.904 1394.82 232.97C1394.82 232.97 1358.22 256.07 1306.69 256.07C1235.96 256.07 1179.1 199.918 1179.1 128.84C1179.1 57.7612 1235.96 0.898495 1306.69 0.898495Z" fill="white"/>
<path d="M129.109 338.66C164.648 338.66 190.948 349.678 215.114 371.712C218.313 374.555 218.313 378.82 215.469 381.663L187.749 410.45C185.261 412.937 181.352 412.937 178.864 410.45C165.715 398.722 148.301 392.325 130.886 392.325C90.7271 392.325 61.229 425.732 61.229 465.535C61.229 504.984 91.0818 537.68 131.241 537.68C147.945 537.68 166.07 531.639 178.864 520.621C181.352 518.489 185.972 518.489 188.104 520.977L215.825 550.474C218.313 552.962 217.957 557.582 215.469 560.07C191.303 583.526 160.739 594.543 129.109 594.543C58.0306 594.543 0.8125 538.036 0.8125 466.957C0.8125 395.879 58.0306 338.66 129.109 338.66Z" fill="white"/>
<path d="M717.987 537.68C757.08 537.68 789.066 505.695 789.066 466.957C789.066 427.864 757.08 395.523 717.987 395.523C679.25 395.523 647.264 427.864 647.264 466.957C647.264 505.695 679.25 537.68 717.987 537.68ZM717.987 338.66C789.066 338.66 845.929 395.879 845.929 466.957C845.929 538.036 789.066 594.543 717.987 594.543C646.909 594.543 590.401 538.036 590.401 466.957C590.401 395.879 646.909 338.66 717.987 338.66Z" fill="white"/>
<path d="M924.465 350.743C924.465 346.122 928.019 342.213 932.994 342.213H974.575C979.195 342.213 983.105 346.122 983.105 350.743V444.211L1062 345.767C1063.42 343.99 1066.62 342.213 1068.75 342.213H1113.53C1120.29 342.213 1123.84 350.032 1119.93 355.363L1036.77 459.493L1127.39 577.483C1131.3 582.814 1127.39 590.633 1120.64 590.633H1071.6C1069.11 590.633 1065.91 589.211 1065.2 588.145L983.105 476.552V582.459C983.105 587.079 979.195 590.988 974.575 590.988H932.994C928.019 590.988 924.465 587.079 924.465 582.459V350.743Z" fill="white"/>
<path d="M1199.18 348.966C1199.18 345.412 1202.38 342.213 1205.93 342.213H1248.58C1252.13 342.213 1255.33 345.412 1255.33 348.966V584.236C1255.33 587.79 1252.13 590.988 1248.58 590.988H1205.93C1202.38 590.988 1199.18 587.79 1199.18 584.236V348.966Z" fill="white"/>
<path d="M1351.99 348.966C1351.99 345.412 1354.83 342.213 1358.74 342.213H1505.88C1509.79 342.213 1512.63 345.412 1512.63 348.966V387.704C1512.63 391.257 1509.79 394.456 1505.88 394.456H1407.43V438.525H1488.46C1492.02 438.525 1495.21 441.723 1495.21 445.277V484.015C1495.21 487.924 1492.02 490.768 1488.46 490.768H1407.43V538.745H1505.88C1509.79 538.745 1512.63 541.944 1512.63 545.498V584.236C1512.63 587.79 1509.79 590.988 1505.88 590.988H1358.74C1354.83 590.988 1351.99 587.79 1351.99 584.236V348.966Z" fill="white"/>
<path d="M1581.57 557.227L1598.28 527.729C1601.12 523.109 1607.87 523.82 1610.36 525.597C1611.78 526.307 1637.37 545.144 1660.83 545.144C1675.04 545.144 1685.35 536.259 1685.35 523.82C1685.35 508.894 1672.91 497.521 1648.74 487.925C1618.18 475.842 1579.8 452.031 1579.8 409.383C1579.8 374.199 1607.16 338.66 1661.89 338.66C1698.85 338.66 1727.28 357.496 1737.95 365.315C1742.21 367.803 1741.5 374.199 1740.08 376.687L1721.95 404.052C1719.47 407.962 1713.07 411.16 1709.87 408.672C1706.67 406.895 1680.73 387.349 1659.05 387.349C1646.26 387.349 1636.66 395.878 1636.66 405.474C1636.66 418.624 1647.32 428.575 1675.4 439.947C1703.12 450.964 1747.19 472.643 1747.19 520.977C1747.19 557.582 1715.56 594.543 1663.31 594.543C1617.11 594.543 1591.52 575.352 1583.35 567.178C1579.8 563.624 1578.73 562.202 1581.57 557.227Z" fill="white"/>
</svg>
