<svg width="378" height="76" viewBox="0 0 378 76" fill="none" xmlns="http://www.w3.org/2000/svg">
<path d="M343.813 41.0785C343.173 41.0785 343.586 40.6252 343.773 40.0785L348.493 19.8119C348.68 18.7185 349.586 18.8119 349.76 19.8119L354.4 40.0785C354.493 40.6252 353.626 41.0785 352.986 41.0785H343.813ZM335 69.8785C335.813 69.8785 336.266 69.4252 336.453 68.6919L339.906 53.8785C340 53.4252 340.36 53.0652 340.906 53.0652H355.893C356.44 53.0652 356.8 53.4252 356.893 53.8785L360.346 68.6919C360.533 69.4252 361.666 69.8785 362.493 69.8785H373.306C374.213 69.8785 374.76 69.3319 374.493 68.3319L358.493 6.37188C358.306 5.63854 357.853 5.18521 357.04 5.18521H341.32C340.506 5.18521 340.053 5.63854 339.866 6.37188L323.88 68.3452C323.613 69.3452 324.146 69.8919 325.066 69.8919H335V69.8785ZM309.2 69.8785C310.013 69.8785 310.466 69.4252 310.653 68.6919L326.466 6.71854C326.733 5.71854 326.2 5.17188 325.28 5.17188H313.413C312.6 5.17188 312.146 5.62521 311.96 6.35854L301.56 54.7852C301.373 55.7852 300.466 55.7852 300.293 54.7852L289.2 6.37188C289.013 5.63854 288.56 5.18521 287.746 5.18521H276.386C275.48 5.18521 274.933 5.73188 275.2 6.73188L291.013 68.7052C291.2 69.4385 291.653 69.8919 292.466 69.8919H309.2V69.8785ZM243.226 57.8519C241.586 57.8519 240.586 56.8519 240.586 55.2119V19.8519C240.586 18.2119 241.586 17.2119 243.226 17.2119H255.133C256.773 17.2119 257.773 18.2119 257.773 19.8519V55.2119C257.773 56.8519 256.773 57.8519 255.133 57.8519H243.226ZM255.493 69.8785C265.493 69.8785 270.346 64.3319 270.346 54.3452V20.7185C270.346 10.7185 265.493 5.18521 255.493 5.18521H242.866C232.866 5.18521 228.013 10.7319 228.013 20.7185V54.3452C228.013 64.3452 232.866 69.8785 242.866 69.8785H255.493ZM179.293 69.8785C180.106 69.8785 180.653 69.3319 180.653 68.5185V58.5185C180.653 57.7052 180.106 57.1585 179.293 57.1585H158.08C157.533 57.1585 157.173 56.7985 157.173 56.2519L156.48 6.54521C156.48 5.73187 155.933 5.18521 155.12 5.18521H144.573C143.76 5.18521 143.213 5.73187 143.213 6.54521L143.906 68.5185C143.906 69.3319 144.453 69.8785 145.266 69.8785H179.293ZM127.866 69.8785C128.68 69.8785 129.226 69.3319 129.226 68.5185V6.54521C129.226 5.73187 128.68 5.18521 127.866 5.18521H117.32C116.506 5.18521 115.96 5.73187 115.96 6.54521V68.5185C115.96 69.3319 116.506 69.8785 117.32 69.8785H127.866ZM70.3863 69.8785C71.1996 69.8785 71.7463 69.3319 71.7463 68.5185V44.7985C71.7463 44.2519 72.1063 43.8919 72.6529 43.8919H88.4663C89.0129 43.8919 89.3729 44.2519 89.3729 44.7985V68.5185C89.3729 69.3319 89.9196 69.8785 90.7329 69.8785H101.28C102.093 69.8785 102.64 69.3319 102.64 68.5185V6.54521C102.64 5.73187 102.093 5.18521 101.28 5.18521H90.7329C89.9196 5.18521 89.3729 5.73187 89.3729 6.54521V30.2652C89.3729 30.8119 89.0129 31.1719 88.4663 31.1719H72.6663C72.1196 31.1719 71.7596 30.8119 71.7596 30.2652V6.54521C71.7596 5.73187 71.2129 5.18521 70.3996 5.18521H59.8529C59.0396 5.18521 58.4929 5.73187 58.4929 6.54521V68.5185C58.4929 69.3319 59.0396 69.8785 59.8529 69.8785H70.3863ZM47.2129 69.8785C48.0263 69.8785 48.5729 69.3319 48.5729 68.5185V58.7985C48.5729 57.9852 48.0263 57.4385 47.2129 57.4385H22.8529C22.1196 57.4385 21.9462 56.9852 22.3062 56.3452L47.7463 16.9985C48.1063 16.4519 48.2929 15.9985 48.2929 15.3585V6.54521C48.2929 5.73187 47.7463 5.18521 46.9329 5.18521H8.62625C7.81292 5.18521 7.26625 5.73187 7.26625 6.54521V16.2652C7.26625 17.0785 7.81292 17.6252 8.62625 17.6252H32.0263C32.7596 17.6252 32.9329 18.0785 32.5729 18.7185L6.45292 58.0652C6.09292 58.6119 5.90625 59.0652 5.90625 59.7052V68.5185C5.90625 69.3319 6.45292 69.8785 7.26625 69.8785H47.2129ZM203.6 69.8785C204.413 69.8785 204.96 69.3319 204.96 68.5185V46.1719C204.96 45.5319 205.146 44.9852 205.413 44.4519L225.4 6.83854C225.853 5.93188 225.4 5.19854 224.4 5.19854H212.68C211.946 5.19854 211.493 5.55854 211.133 6.19854L199.413 30.3719C199.053 31.1852 198.32 31.1852 197.96 30.3719L186.146 6.19854C185.786 5.55854 185.333 5.19854 184.6 5.19854H172.24C171.24 5.19854 170.786 5.93188 171.24 6.83854L191.226 44.4519C191.493 44.9985 191.68 45.5452 191.68 46.1719V68.5319C191.68 69.3452 192.226 69.8919 193.04 69.8919H203.6V69.8785Z" fill="white"/>
</svg>
