<svg version="1.1" id="svg2" xml:space="preserve" viewBox="44.352000000000004 422.40000000000003 982.08 209.08800000000002" xmlns="http://www.w3.org/2000/svg" style="max-height: 500px" width="982.08" height="209.08800000000002"><metadata id="metadata8">image/svg+xml</metadata><defs id="defs6"><clipPath clipPathUnits="userSpaceOnUse" id="clipPath22"><path d="M 0,792 H 792 V 0 H 0 Z" id="path20"/></clipPath></defs><g id="g10" transform="matrix(1.3333333,0,0,-1.3333333,0,1056)"><text transform="matrix(1,0,0,-1,29.2056,341.6582)" style="font-variant:normal;font-weight:normal;font-stretch:normal;font-size:163.3125px;-inkscape-font-specification:zArista;writing-mode:lr-tb;fill:#ffffff;fill-opacity:1;fill-rule:nonzero;stroke:none" id="text14"><tspan x="0 65.488312 116.76844 202.18088 287.59332 376.59863 450.25256 560.48853 648.18732" y="0" id="tspan12">FreezB ne</tspan></text>
<g id="g16"><g id="g18" clip-path="url(#clipPath22)"><g id="g24" transform="translate(531.9385,407.2959)"><path d="m 0,0 c -0.077,6.174 -4.2,11.456 -12.92,11.456 -8.719,0 -16.992,-8.401 -16.992,-15.211 0,-6.809 5.791,-9.61 9.355,-8.592 C -8.494,-8.9 0.063,-5.091 0,0" style="fill:#ffffff;fill-opacity:1;fill-rule:nonzero;stroke:none" id="path26"/></g><g id="g28" transform="translate(501.2627,387.7578)"><path d="m 0,0 c 0,0 0.127,6.683 -7.383,6.683 -7.51,0 -11.391,-7.065 -11.391,-12.411 0,-5.346 2.991,-9.928 7.636,-9.928 3.055,0 4.392,1.464 6.046,4.136 1.655,2.673 4.392,8.911 4.392,8.911 0,0 0.679,1.453 0.7,2.609" style="fill:#ffffff;fill-opacity:1;fill-rule:nonzero;stroke:none" id="path30"/></g><g id="g32" transform="translate(539.3018,408.0405)"><path d="M 0,0 C 0.724,6.132 5.378,10.952 14.049,10.038 22.72,9.124 30.067,-0.098 29.353,-6.87 28.639,-13.642 22.586,-15.82 19.148,-14.433 7.514,-9.741 -0.598,-5.057 0,0" style="fill:#ffffff;fill-opacity:1;fill-rule:nonzero;stroke:none" id="path34"/></g><g id="g36" transform="translate(569.5166,385.2373)"><path d="m 0,0 c 0,0 0.989,6.61 8.394,5.357 7.405,-1.252 10.054,-8.865 9.163,-14.135 -0.892,-5.272 -4.605,-9.291 -9.186,-8.516 -3.013,0.509 -4.086,2.175 -5.271,5.087 -1.186,2.911 -2.844,9.518 -2.844,9.518 0,0 -0.428,1.545 -0.256,2.689" style="fill:#ffffff;fill-opacity:1;fill-rule:nonzero;stroke:none" id="path38"/></g><g id="g40" transform="translate(534.6299,392.9131)"><path d="m 0,0 c -1.442,0 -34.281,-1.273 -34.281,-28.64 0,-16.61 11.497,-20.365 34.281,-20.365 22.784,0 34.749,3.755 34.749,20.365 C 34.749,-1.273 1.273,0 0,0" style="fill:#ffffff;fill-opacity:1;fill-rule:nonzero;stroke:none" id="path42"/></g></g></g></g></svg>