<svg width="102" height="64" viewBox="0 0 102 64" fill="none" xmlns="http://www.w3.org/2000/svg">
<path d="M16.6631 39.9616C18.3501 38.1646 19.1891 37.2656 19.1891 37.2656" stroke="white" stroke-linecap="round" stroke-linejoin="round"/>
<path d="M16.6629 39.9611C17.3119 35.1571 12.4579 35.6871 10.0609 41.0201C14.6449 30.8531 9.5009 19.2871 8.4829 23.3421C4.7279 16.6111 4.0279 27.9361 4.6679 35.2471C3.7379 35.1571 -0.106097 43.8971 3.7379 49.6091C-1.6141 56.4601 -1.0551 59.9061 4.3679 56.7001C3.2989 59.5271 2.9299 61.0351 3.0799 61.4941C3.3399 62.2641 5.2369 64.2611 7.6439 57.5291C8.2539 66.9571 13.0269 65.6191 14.8139 56.5201C19.9679 61.1941 22.1759 57.4301 18.5999 50.3981C24.5629 45.9241 24.3829 38.9031 16.6629 39.9611ZM13.7859 51.4271C13.8759 54.7631 12.3379 56.7801 10.3699 52.9351C7.8339 55.3821 6.3559 53.7941 7.6539 50.4381C4.4979 48.5301 6.3259 44.8951 10.0409 44.5751C11.6789 40.0711 13.6859 40.7801 13.8659 44.2251C18.1409 43.8661 17.4709 49.2601 13.7859 51.4271Z" fill="white"/>
<path d="M35.6787 39.5211C36.3677 36.6641 36.7067 35.2461 36.7067 35.2461" stroke="white" stroke-linecap="round" stroke-linejoin="round"/>
<path d="M35.6787 39.5223C31.1037 32.2513 22.7547 39.0823 26.8687 48.1613C22.8447 52.2363 24.5527 57.1503 30.1947 55.6913C35.8877 69.7943 45.7747 57.4493 37.3357 52.1763C37.8557 54.4033 36.7867 56.4903 33.9707 52.9753C31.2337 55.0423 27.9877 51.4773 30.5447 47.6923C32.6917 48.6503 36.6067 52.0763 38.5347 50.8973C39.5437 50.2783 38.8047 48.5103 38.9247 48.6403C38.9847 48.7003 42.8587 48.0013 42.5797 42.7083C42.4397 40.2113 40.5017 36.2563 35.6787 39.5223ZM38.1347 45.1153C37.5257 46.8833 30.3747 44.7353 30.8747 43.0973C30.9647 42.7973 31.4137 42.4683 32.2727 42.8173C31.3637 39.2323 33.9907 40.5013 36.1677 42.0993C37.5557 43.1073 38.4047 44.3263 38.1347 45.1153Z" fill="white"/>
<path d="M88.3418 15.6613L91.0988 12.6953" stroke="white" stroke-linecap="round" stroke-linejoin="round"/>
<path d="M75.6479 28.1154C75.2379 31.5414 76.6969 33.4384 78.7839 33.8284C81.1909 34.2684 84.4269 32.6994 86.6239 29.0944C86.7539 28.8744 86.8939 28.6444 87.0139 28.4044C87.2539 27.9654 89.5009 27.7464 85.3659 25.8484C85.9559 26.1184 85.9559 26.5484 85.6159 26.9874C84.5859 28.2854 80.4519 29.5934 79.7329 26.4874C76.1669 28.5454 75.7679 26.6474 78.7639 23.2314C81.3909 24.7194 86.1039 26.6774 89.1809 23.6514C96.2519 19.5264 94.7539 15.1614 88.3519 15.6614C88.2119 8.4014 82.8589 8.1414 80.0219 15.2214C74.5199 13.8234 71.1539 19.7964 75.0589 23.3814C69.9949 27.3564 69.9439 30.1834 75.6479 28.1154ZM80.4819 18.6874C79.4629 16.7904 81.4709 16.7104 83.1389 17.6484C84.3369 17.0094 85.6649 16.8894 86.5339 17.2384C87.6229 17.6784 88.6419 19.9654 86.3239 20.6654C84.7169 21.1544 80.5319 20.1454 79.5739 19.6064C79.2139 19.4164 79.3939 18.5374 80.4819 18.6874ZM58.5299 47.1514C59.8379 43.8654 59.2789 41.8284 58.1399 41.1994C57.1109 40.6394 55.3939 42.1084 55.3639 42.4774C55.4339 41.6984 53.7659 39.7514 53.1659 39.1014C51.9379 37.7934 50.7589 37.4334 49.8809 37.9534C48.9609 38.5034 48.5419 39.1814 48.5919 41.6184C48.5919 41.8484 46.7049 42.0284 50.3699 44.9444C50.7799 41.6084 54.9539 42.0984 55.4439 48.0104C47.4939 42.3774 36.1279 52.5944 49.5709 55.9904C51.4989 64.8994 56.6419 64.0204 56.8909 56.5704C61.3259 66.1974 64.6319 62.7224 62.3349 57.8784C61.8649 56.0004 61.3559 50.0384 58.5299 47.1514ZM51.4989 53.7434C49.9109 53.9434 49.2209 53.2734 49.8609 52.1454C45.6459 48.9294 53.7659 49.6884 54.4549 51.0864C57.9499 55.7404 52.3179 55.7404 51.4989 53.7434ZM75.9579 49.8184C74.9779 47.6414 68.5279 45.7834 72.1029 46.1324C72.3929 45.0644 72.8219 44.5844 73.2809 44.4554C73.9409 44.2754 74.9189 44.4554 75.4679 45.1144C75.7179 45.4044 75.9679 45.9434 76.0979 46.3424C76.4279 47.3414 79.7629 45.5234 79.3029 44.3554C79.2529 44.2354 78.6739 43.4954 77.3659 44.2754C78.2549 41.5484 77.6359 40.7794 76.4669 40.0804C74.9689 39.1714 72.5219 39.9604 71.0739 42.4774C66.1799 37.9434 61.3059 39.5614 66.2599 45.9234C61.9149 47.7804 75.4379 51.8054 73.6799 53.4234C71.6329 56.4004 68.3769 54.3834 67.8579 51.6264C67.7879 51.2764 67.4079 51.3764 67.1979 51.4764C63.9129 53.0244 62.7639 53.8634 67.3579 53.4834C64.4619 56.8494 66.6989 58.1174 70.1949 55.7404C69.9149 59.9954 70.8349 60.6244 72.5219 56.8994C76.1569 63.1314 77.9049 61.8734 77.5659 57.2994C88.6819 64.1994 78.0459 48.3094 75.9579 49.8184ZM40.8419 24.9594C40.2819 29.0044 40.9619 31.3014 42.1499 31.4514C42.7099 31.5214 43.3889 31.1114 44.1079 30.1834C44.3779 29.8334 44.5179 29.5634 44.7969 29.0644C44.8969 28.8844 45.2169 28.0654 45.5659 28.5844C45.7459 28.8644 45.9459 29.3744 46.1459 29.3344C46.3649 29.2844 46.4849 29.2544 46.4449 28.3444C46.4249 27.8264 46.3849 26.6174 46.3749 25.9284C46.3649 25.4784 45.9249 25.3784 45.8149 25.7484C45.4359 27.0074 45.1469 27.5864 44.6869 27.4764C44.0279 27.3264 43.5189 25.7584 43.8479 22.6624C44.9069 23.7114 45.6059 20.9044 46.3249 17.5694C49.9409 20.5754 53.8049 14.2334 48.8719 14.0034C51.3289 10.9074 49.5509 11.4164 46.9339 13.5234C48.4919 8.3904 46.8639 4.4254 45.0869 7.0724C43.4689 1.5994 42.1399 0.849396 41.8199 4.8254C41.7699 5.4344 41.8399 5.2154 42.1999 6.0734C42.5989 7.0224 43.0779 9.1794 43.1079 11.7964C41.1509 9.0494 39.6429 8.3504 40.8209 11.6364C37.4749 10.7974 39.0229 14.8224 43.2179 15.9414C40.4509 20.4854 36.5269 26.1084 40.8419 24.9594Z" fill="white"/>
<path d="M55.3438 13.6436C52.5968 18.1686 48.6618 23.8016 52.9768 22.6436C52.4168 26.6876 53.0968 28.9846 54.2848 29.1336C54.8448 29.2036 55.5228 28.7946 56.2428 27.8666C56.5128 27.5166 56.6518 27.2466 56.9318 26.7466C57.0318 26.5676 57.3518 25.7486 57.7008 26.2686C57.8808 26.5486 58.0808 27.0576 58.2798 27.0176C58.4998 26.9676 58.6198 26.9376 58.5798 26.0276C58.5598 25.5096 58.5198 24.3006 58.5098 23.6116C58.4998 23.1616 58.0598 23.0616 57.9498 23.4316C57.5698 24.6906 57.2808 25.2696 56.8218 25.1596C56.1618 25.0096 55.6528 23.4416 55.9818 20.3456C57.0418 21.3946 57.7408 18.5876 58.4598 15.2516C62.0748 18.2586 65.9398 11.9166 61.0068 11.6866C63.4628 8.59057 61.6858 9.09957 59.0688 11.2066C60.6268 6.07357 58.9988 2.10857 57.2208 4.75557C55.6028 -0.717433 54.2748 -1.46643 53.9548 2.50857C53.9048 3.11757 53.9748 2.89757 54.3348 3.75657C54.7348 4.70557 55.2138 6.86257 55.2438 9.47957C53.2858 6.73257 51.7778 6.03357 52.9568 9.31957C49.5908 8.49057 51.1488 12.5256 55.3438 13.6436ZM97.6998 45.7636C101.266 45.2536 101.825 43.4166 101.715 42.7676C101.625 42.2176 100.676 41.9676 98.6188 42.1976C100.437 39.3316 95.6528 38.9326 94.8338 42.1976C96.4618 35.6866 95.6828 35.9456 95.2838 35.9356C94.9538 35.9256 94.7338 36.3056 93.5448 37.7136C92.4868 34.8476 91.5978 30.4236 89.8098 30.9326C88.1818 31.3926 88.7818 35.2366 89.5598 40.7396C86.6338 38.7126 83.9478 38.3226 85.4758 41.7486C82.0698 40.1006 81.7498 40.7596 83.5578 42.8376C83.9378 43.2776 83.3678 43.5766 85.3158 44.0156C86.0448 44.1756 87.0738 44.4756 88.3718 44.8946C86.2248 44.9346 85.7048 46.4026 87.4628 47.5616C82.4688 52.5446 87.2328 61.0446 93.4858 56.3506C97.2308 62.7226 99.6878 62.1926 98.3188 56.3506C101.206 60.6146 101.625 57.9886 97.0808 53.1446C99.0288 56.4396 97.2008 56.9696 94.0448 53.1446C94.0648 56.4396 93.2048 55.4016 92.5868 51.5666C88.9108 51.8866 94.0248 48.3306 94.0248 45.9636C95.8028 45.8036 97.0608 45.8536 97.6998 45.7636Z" fill="white"/>
<path d="M19.4894 30.3008L18.8594 34.9958" stroke="white" stroke-linecap="round" stroke-linejoin="round"/>
<path d="M22.9946 26.1568C26.9986 24.3978 25.7796 0.417775 19.6886 4.82378C17.6206 -1.12922 15.6236 -1.42922 15.7736 3.94378C15.7836 4.21378 15.7936 4.73378 16.4326 5.08378C20.8966 7.43977 18.9096 19.6638 18.2506 24.2788C15.9526 30.1218 17.1606 33.3978 19.4886 30.3008C21.1966 36.3538 24.8816 32.6778 23.8126 28.9028C23.5826 28.1038 23.3136 27.1848 22.9946 26.1568ZM66.4696 29.6618C66.8496 28.2038 67.3386 25.9668 67.7876 23.1798C71.5826 19.3848 75.4876 10.2768 68.4376 6.52077C67.5976 -0.280225 65.7706 -0.779225 64.8516 5.03277C64.7816 5.49277 64.4716 6.52078 65.2516 6.24178C71.0236 4.15377 64.4716 23.1398 62.8636 28.2338C61.6956 31.9588 62.8136 30.6408 62.7936 31.1498C62.7136 33.2678 62.8836 34.5258 63.2436 34.9258C63.7236 35.4748 64.5416 34.4358 65.4806 31.7798C65.6906 31.1998 65.8706 31.9698 66.4696 29.6618Z" fill="white"/>
<path d="M29.8258 27.4062C28.9468 29.4142 28.5078 30.4123 28.5078 30.4123" stroke="white" stroke-linecap="round" stroke-linejoin="round"/>
<path d="M31.2444 11.6784C30.7944 11.7684 30.3854 12.1384 30.0864 12.7874C29.9564 13.0674 29.8464 13.3964 29.7664 13.7854C29.6864 14.1854 29.8264 14.5254 30.1864 14.6554C31.9234 15.2734 31.2844 18.9594 30.3564 21.7254C27.1294 25.2014 28.3184 28.3274 29.8164 27.3984C30.0164 29.5254 30.8154 30.5544 31.6944 30.4844C32.4034 30.4244 33.5414 29.9344 33.7814 27.5584C33.8314 27.0184 33.6414 25.8704 33.5814 25.1414C35.2994 22.1154 40.3434 17.7814 34.0514 14.8144C33.3614 12.5474 32.2034 11.4884 31.2444 11.6784ZM31.4844 9.09144C37.0674 12.0084 31.8744 3.74844 29.1774 3.75844C28.9074 3.75844 28.6574 3.82844 28.4674 4.01844C28.3374 4.13844 28.2074 4.10844 28.1584 4.07844C26.9404 3.38844 26.2004 3.21844 25.8114 3.40844C23.9934 4.26844 30.0164 12.7074 31.4844 9.09144Z" fill="white"/>
</svg>
